<svg width="480" height="480" viewBox="0 0 480 480" fill="none" xmlns="http://www.w3.org/2000/svg">
<rect width="480" height="480" rx="240" fill="white"/>
<path fill-rule="evenodd" clip-rule="evenodd" d="M325.714 122.143H154.286C136.534 122.143 122.143 136.534 122.143 154.286V325.714C122.143 343.466 136.534 357.857 154.286 357.857H325.714C343.466 357.857 357.857 343.466 357.857 325.714V154.286C357.857 136.534 343.466 122.143 325.714 122.143ZM154.286 90C118.782 90 90 118.782 90 154.286V325.714C90 361.218 118.782 390 154.286 390H325.714C361.218 390 390 361.218 390 325.714V154.286C390 118.782 361.218 90 325.714 90H154.286Z" fill="#073042"/>
<path d="M143.593 189.898H132.857V175.714H195.983V189.898H178.806L203.284 295.413H204.143L233.988 175.714H262.975L294.108 295.413H294.967L318.156 189.898H300.979V175.714H347.143V189.898H336.407L303.341 325.714H269.845L240.429 217.405H239.571L210.155 325.714H176.659L143.593 189.898Z" fill="#073042"/>
</svg>
