<svg width="9" height="9" viewBox="0 0 9 9" fill="white" xmlns="http://www.w3.org/2000/svg">
<path fill-rule="evenodd" clip-rule="evenodd" d="M0 0.5C0 0.223858 0.223858 0 0.5 0H8.5C8.77614 0 9 0.223858 9 0.5C9 0.776142 8.77614 1 8.5 1H0.5C0.223858 1 0 0.776142 0 0.5Z" fill="white"/>
<path fill-rule="evenodd" clip-rule="evenodd" d="M0 4.5C0 4.22386 0.223858 4 0.5 4H8.5C8.77614 4 9 4.22386 9 4.5C9 4.77614 8.77614 5 8.5 5H0.5C0.223858 5 0 4.77614 0 4.5Z" fill="white"/>
<path fill-rule="evenodd" clip-rule="evenodd" d="M0 8.5C0 8.22386 0.223858 8 0.5 8H8.5C8.77614 8 9 8.22386 9 8.5C9 8.77614 8.77614 9 8.5 9H0.5C0.223858 9 0 8.77614 0 8.5Z" fill="white"/>
</svg>
