<svg width="14" height="14" viewBox="0 0 14 14" fill="currentColor" xmlns="http://www.w3.org/2000/svg">
<path fill-rule="evenodd" clip-rule="evenodd" d="M11 1.5H3C2.17157 1.5 1.5 2.17157 1.5 3V11C1.5 11.8284 2.17157 12.5 3 12.5H11C11.8284 12.5 12.5 11.8284 12.5 11V3C12.5 2.17157 11.8284 1.5 11 1.5ZM3 0C1.34315 0 0 1.34315 0 3V11C0 12.6569 1.34315 14 3 14H11C12.6569 14 14 12.6569 14 11V3C14 1.34315 12.6569 0 11 0H3Z" fill="currentColor"/>
<path d="M2.501 4.66189H2V4H4.94589V4.66189H4.14429L5.28657 9.58596H5.32665L6.71944 4H8.07214L9.52505 9.58596H9.56513L10.6473 4.66189H9.84569V4H12V4.66189H11.499L9.95591 11H8.39279L7.02004 5.94556H6.97996L5.60721 11H4.04409L2.501 4.66189Z" fill="currentColor"/>
</svg>
